<svg xmlns="http://www.w3.org/2000/svg" xmlns:xlink="http://www.w3.org/1999/xlink" width="500" zoomAndPan="magnify" viewBox="0 0 375 374.999991" height="500" preserveAspectRatio="xMidYMid meet" version="1.0"><defs><clipPath id="96b199b96b"><path d="M 179.582031 160.945312 L 195.417969 160.945312 L 195.417969 186.4375 L 179.582031 186.4375 Z M 179.582031 160.945312 " clip-rule="nonzero"/></clipPath><clipPath id="9f16d454db"><path d="M 187.5 160.945312 L 195.417969 186.382812 L 179.582031 186.382812 Z M 187.5 160.945312 " clip-rule="nonzero"/></clipPath><clipPath id="930271396b"><path d="M 0.582031 0.945312 L 16.417969 0.945312 L 16.417969 26.4375 L 0.582031 26.4375 Z M 0.582031 0.945312 " clip-rule="nonzero"/></clipPath><clipPath id="04394d5db3"><path d="M 8.5 0.945312 L 16.417969 26.382812 L 0.582031 26.382812 Z M 8.5 0.945312 " clip-rule="nonzero"/></clipPath><clipPath id="8a8273f1cb"><rect x="0" width="17" y="0" height="27"/></clipPath><clipPath id="6dbb218f89"><path d="M 101.253906 77.285156 L 273.753906 77.285156 L 273.753906 269.285156 L 101.253906 269.285156 Z M 101.253906 77.285156 " clip-rule="nonzero"/></clipPath><clipPath id="232e6a9559"><path d="M 0.253906 1 L 172.753906 1 L 172.753906 192.285156 L 0.253906 192.285156 Z M 0.253906 1 " clip-rule="nonzero"/></clipPath><clipPath id="b819adc079"><rect x="0" width="173" y="0" height="193"/></clipPath><clipPath id="012d8c9e9c"><path d="M 180.90625 160.476562 L 194.09375 160.476562 L 194.09375 173.664062 L 180.90625 173.664062 Z M 180.90625 160.476562 " clip-rule="nonzero"/></clipPath><clipPath id="a1149632c3"><path d="M 187.5 160.476562 C 183.859375 160.476562 180.90625 163.425781 180.90625 167.070312 C 180.90625 170.710938 183.859375 173.664062 187.5 173.664062 C 191.140625 173.664062 194.09375 170.710938 194.09375 167.070312 C 194.09375 163.425781 191.140625 160.476562 187.5 160.476562 Z M 187.5 160.476562 " clip-rule="nonzero"/></clipPath><clipPath id="c77b942357"><path d="M 0.90625 0.476562 L 14.09375 0.476562 L 14.09375 13.664062 L 0.90625 13.664062 Z M 0.90625 0.476562 " clip-rule="nonzero"/></clipPath><clipPath id="c3f0b062cf"><path d="M 7.5 0.476562 C 3.859375 0.476562 0.90625 3.425781 0.90625 7.070312 C 0.90625 10.710938 3.859375 13.664062 7.5 13.664062 C 11.140625 13.664062 14.09375 10.710938 14.09375 7.070312 C 14.09375 3.425781 11.140625 0.476562 7.5 0.476562 Z M 7.5 0.476562 " clip-rule="nonzero"/></clipPath><clipPath id="92d003503f"><rect x="0" width="15" y="0" height="14"/></clipPath></defs><rect x="-37.5" width="450" fill="#ffffff" y="-37.499999" height="449.999989" fill-opacity="1"/><rect x="-37.5" width="450" fill="#ffffff" y="-37.499999" height="449.999989" fill-opacity="1"/><g clip-path="url(#96b199b96b)"><g clip-path="url(#9f16d454db)"><g transform="matrix(1, 0, 0, 1, 179, 160)"><g clip-path="url(#8a8273f1cb)"><g clip-path="url(#930271396b)"><g clip-path="url(#04394d5db3)"><path fill="#0d7aff" d="M 0.582031 0.945312 L 16.417969 0.945312 L 16.417969 26.375 L 0.582031 26.375 Z M 0.582031 0.945312 " fill-opacity="1" fill-rule="nonzero"/></g></g></g></g></g></g><g clip-path="url(#6dbb218f89)"><g transform="matrix(1, 0, 0, 1, 101, 77)"><g clip-path="url(#b819adc079)"><g clip-path="url(#232e6a9559)"><path fill="#0d7aff" d="M 164.5625 150.742188 L 94.453125 190.464844 C 92 191.855469 89.246094 192.550781 86.496094 192.550781 C 83.75 192.550781 80.996094 191.855469 78.542969 190.464844 L 8.433594 150.742188 C 3.386719 147.878906 0.253906 142.5 0.253906 136.699219 L 0.253906 58.070312 C 0.253906 52.351562 3.320312 47.011719 8.257812 44.132812 L 78.367188 3.234375 C 83.382812 0.308594 89.613281 0.3125 94.628906 3.234375 L 164.734375 44.132812 C 169.675781 47.011719 172.742188 52.351562 172.742188 58.070312 L 172.742188 120.414062 L 161.257812 111.464844 L 161.257812 58.070312 C 161.257812 56.421875 160.375 54.882812 158.949219 54.050781 L 88.839844 13.160156 C 87.394531 12.316406 85.597656 12.316406 84.15625 13.160156 L 79.257812 16.015625 L 89.171875 33.277344 C 115.0625 34.355469 137.003906 50.988281 145.871094 74.054688 L 145.871094 74.058594 C 147.285156 77.734375 148.367188 81.574219 149.078125 85.542969 L 113.121094 85.542969 C 108.890625 74.980469 98.554688 67.496094 86.496094 67.496094 C 70.6875 67.496094 57.828125 80.355469 57.828125 96.164062 C 57.828125 111.976562 70.6875 124.835938 86.496094 124.835938 C 92.152344 124.835938 97.425781 123.1875 101.871094 120.347656 L 118.53125 120.347656 C 111.195312 130.042969 99.566406 136.320312 86.496094 136.320312 C 81.128906 136.320312 76.003906 135.261719 71.320312 133.34375 L 64.824219 144.160156 C 71.425781 147.199219 78.765625 148.894531 86.5 148.894531 C 106.726562 148.894531 124.285156 137.300781 132.910156 120.414062 L 172.746094 120.414062 L 172.746094 136.699219 C 172.742188 142.5 169.605469 147.878906 164.5625 150.742188 Z M 119.992188 74.054688 L 133.355469 74.054688 C 124.894531 56.695312 107.070312 44.707031 86.496094 44.707031 C 85.195312 44.707031 83.910156 44.769531 82.632812 44.863281 L 81.039062 42.109375 L 81.011719 42.128906 L 69.335938 21.800781 L 69.316406 21.816406 L 63.574219 11.863281 L 61.234375 26.527344 L 14.046875 54.054688 C 12.621094 54.882812 11.738281 56.421875 11.738281 58.070312 L 11.738281 136.699219 C 11.738281 138.371094 12.640625 139.921875 14.097656 140.746094 L 18.875 143.453125 L 29.703125 125.335938 C 25.367188 116.75 22.917969 107.058594 22.917969 96.800781 C 22.917969 71.511719 37.757812 49.632812 59.183594 39.394531 L 64.925781 49.402344 C 64.925781 49.402344 64.921875 49.402344 64.921875 49.402344 L 70.601562 59.285156 C 75.480469 57.175781 80.855469 56.003906 86.5 56.003906 C 100.476562 56.007812 112.804688 63.1875 119.992188 74.054688 Z M 139.46875 131.902344 C 128.070312 149.050781 108.585938 160.382812 86.496094 160.382812 C 72.503906 160.382812 59.554688 155.824219 49.042969 148.136719 L 51.640625 143.808594 L 51.632812 143.808594 L 61.421875 127.511719 C 52.234375 120.144531 46.339844 108.832031 46.339844 96.164062 C 46.339844 83.78125 51.976562 72.6875 60.816406 65.316406 L 55.0625 55.304688 C 42.519531 64.820312 34.402344 79.875 34.402344 96.800781 C 34.402344 107.371094 37.574219 117.207031 43.003906 125.429688 L 41.777344 127.488281 L 41.792969 127.496094 L 25.851562 154.160156 L 25.8125 154.136719 L 22.917969 158.945312 L 36.382812 153.375 L 84.203125 180.472656 C 85.617188 181.273438 87.378906 181.273438 88.789062 180.472656 L 158.894531 140.746094 C 160.351562 139.921875 161.253906 138.371094 161.253906 136.699219 L 161.253906 131.902344 Z M 139.46875 131.902344 " fill-opacity="1" fill-rule="nonzero"/></g></g></g></g><g clip-path="url(#012d8c9e9c)"><g clip-path="url(#a1149632c3)"><g transform="matrix(1, 0, 0, 1, 180, 160)"><g clip-path="url(#92d003503f)"><g clip-path="url(#c77b942357)"><g clip-path="url(#c3f0b062cf)"><path fill="#0d7aff" d="M 0.90625 0.476562 L 14.09375 0.476562 L 14.09375 13.664062 L 0.90625 13.664062 Z M 0.90625 0.476562 " fill-opacity="1" fill-rule="nonzero"/></g></g></g></g></g></g></svg>