<svg width="44" height="49" viewBox="0 0 44 49" fill="none" xmlns="http://www.w3.org/2000/svg">
<mask id="mask0_3_1371" style="mask-type:luminance" maskUnits="userSpaceOnUse" x="19" y="20" width="5" height="8">
<path d="M19.5433 22.9519C19.5433 21.8608 20.4278 20.9763 21.5189 20.9763C22.61 20.9763 23.4945 21.8608 23.4945 22.9519V25.3925C23.4945 26.4836 22.61 27.3681 21.5189 27.3681C20.4278 27.3681 19.5433 26.4836 19.5433 25.3925V22.9519Z" fill="white"/>
</mask>
<g mask="url(#mask0_3_1371)">
<mask id="mask1_3_1371" style="mask-type:luminance" maskUnits="userSpaceOnUse" x="20" y="24" width="3" height="4">
<path d="M20.1279 25.4673C20.5513 24.1001 22.4865 24.1001 22.91 25.4673C23.2002 26.4043 22.4998 27.3544 21.5189 27.3544C20.538 27.3544 19.8376 26.4043 20.1279 25.4673Z" fill="white"/>
</mask>
<g mask="url(#mask1_3_1371)">
<mask id="mask2_3_1371" style="mask-type:luminance" maskUnits="userSpaceOnUse" x="19" y="20" width="5" height="8">
<path d="M23.6397 25.3885V22.8603C23.6397 21.689 22.6902 20.7395 21.5189 20.7395C20.3476 20.7395 19.3981 21.689 19.3981 22.8603V25.3885C19.3981 26.5598 20.3476 27.5094 21.5189 27.5094C22.6902 27.5094 23.6397 26.5598 23.6397 25.3885Z" fill="white"/>
</mask>
<g mask="url(#mask2_3_1371)">
<mask id="mask3_3_1371" style="mask-type:luminance" maskUnits="userSpaceOnUse" x="19" y="20" width="5" height="8">
<path d="M19.5433 22.9519C19.5433 21.8608 20.4278 20.9763 21.5189 20.9763C22.61 20.9763 23.4945 21.8608 23.4945 22.9519V25.3925C23.4945 26.4836 22.61 27.3681 21.5189 27.3681C20.4278 27.3681 19.5433 26.4836 19.5433 25.3925V22.9519Z" fill="white"/>
</mask>
<g mask="url(#mask3_3_1371)">
<mask id="mask4_3_1371" style="mask-type:luminance" maskUnits="userSpaceOnUse" x="20" y="24" width="3" height="4">
<path d="M20.1279 25.4673C20.5513 24.1001 22.4865 24.1001 22.91 25.4673C23.2002 26.4043 22.4998 27.3544 21.5189 27.3544C20.538 27.3544 19.8376 26.4043 20.1279 25.4673Z" fill="white"/>
</mask>
<g mask="url(#mask4_3_1371)">
<path d="M19.5433 22.9519C19.5433 21.8608 20.4278 20.9763 21.5189 20.9763C22.61 20.9763 23.4945 21.8608 23.4945 22.9519V25.3769C23.4945 26.4679 22.61 27.3524 21.5189 27.3524C20.4278 27.3524 19.5433 26.4679 19.5433 25.3769V22.9519Z" fill="#E6A284"/>
</g>
</g>
</g>
</g>
</g>
<mask id="mask5_3_1371" style="mask-type:luminance" maskUnits="userSpaceOnUse" x="0" y="0" width="44" height="49">
<path d="M0 6.00001C0 2.6863 2.68629 0 6 0H37.0399C40.3536 0 43.0399 2.68629 43.0399 6V42.1412C43.0399 45.4549 40.3536 48.1412 37.0399 48.1412H6C2.68629 48.1412 0 45.4549 0 42.1412V6.00001Z" fill="white"/>
</mask>
<g mask="url(#mask5_3_1371)">
<mask id="mask6_3_1371" style="mask-type:luminance" maskUnits="userSpaceOnUse" x="-1" y="-1" width="45" height="50">
<path d="M37.1013 -0.0715332H5.93665C2.62294 -0.0715332 -0.0633545 2.61475 -0.0633545 5.92846V42.3204C-0.0633545 45.6341 2.62294 48.3204 5.93665 48.3204H37.1013C40.415 48.3204 43.1013 45.6341 43.1013 42.3204V5.92847C43.1013 2.61476 40.415 -0.0715332 37.1013 -0.0715332Z" fill="white"/>
</mask>
<g mask="url(#mask6_3_1371)">
<mask id="mask7_3_1371" style="mask-type:luminance" maskUnits="userSpaceOnUse" x="0" y="0" width="44" height="49">
<path d="M0 6.17969C0 2.86598 2.68629 0.179688 6 0.179688H37.0399C40.3536 0.179688 43.0399 2.86598 43.0399 6.17969V42.1416C43.0399 45.4553 40.3536 48.1416 37.0399 48.1416H6C2.68629 48.1416 0 45.4553 0 42.1416V6.17969Z" fill="white"/>
</mask>
<g mask="url(#mask7_3_1371)">
<path d="M40.9961 37.7252L23.5033 47.6851C22.8913 48.0337 22.2042 48.2081 21.518 48.2081C20.8328 48.2081 20.1457 48.0337 19.5337 47.6851L2.04089 37.7252C0.781658 37.0073 0 35.6586 0 34.2041V14.4891C0 13.0552 0.765089 11.7163 1.99703 10.9945L19.4898 0.739772C20.7412 0.00617512 22.2958 0.00715449 23.5472 0.739772L41.039 10.9945C42.2719 11.7163 43.037 13.0552 43.037 14.4891V27.1792C43.037 28.3736 41.6613 29.0436 40.721 28.3072C40.3742 28.0356 40.1716 27.6196 40.1716 27.1792V14.4891C40.1716 14.0758 39.9513 13.6899 39.5956 13.4812L22.1028 3.22851C21.7422 3.01696 21.2938 3.01696 20.9342 3.22851C20.2571 3.62517 20.0255 4.49296 20.4149 5.17426L21.2991 6.72141C21.8508 7.68674 22.8643 8.27622 23.9629 8.44774C29.6367 9.33363 34.3258 13.2517 36.3323 18.4965C36.3324 18.4968 36.3325 18.4971 36.3325 18.4974C36.3325 18.4977 36.3325 18.4981 36.3327 18.4984C36.3804 18.623 36.4265 18.7483 36.4712 18.8744C36.9222 20.1482 35.8921 21.3774 34.5408 21.3774H31.4102C29.4483 21.3774 27.7763 20.0518 26.3293 18.7269C25.0582 17.5631 23.3695 16.8524 21.518 16.8524C17.5737 16.8524 14.3652 20.0767 14.3652 24.0405C14.3652 28.0053 17.5737 31.2296 21.518 31.2296C22.7402 31.2296 23.8907 30.9196 24.8974 30.3741C25.202 30.209 25.5384 30.1042 25.8848 30.1042C27.377 30.1042 28.1218 31.7521 26.863 32.5533C25.3154 33.5383 23.4819 34.1091 21.518 34.1091C20.663 34.1091 19.8327 34.0009 19.04 33.7975C18.2718 33.6005 17.4305 33.8665 17.0237 34.5472C16.5358 35.3636 16.8623 36.4318 17.7723 36.7081C18.9588 37.0683 20.2165 37.2619 21.519 37.2619C25.2533 37.2619 28.6231 35.6703 30.995 33.1271C32.5354 31.4755 34.5212 30.1208 36.7796 30.1208H38.9547C41.2098 30.1208 43.038 31.949 43.038 34.2041C43.037 35.6586 42.2544 37.0073 40.9961 37.7252ZM29.3841 17.8139C29.7084 18.2272 30.1918 18.4969 30.7171 18.4969C31.8696 18.4969 32.6054 17.294 31.9154 16.3708C29.5421 13.1957 25.7649 11.1384 21.518 11.1384C21.2911 11.1384 21.066 11.1461 20.8422 11.1587C20.666 11.1687 20.4981 11.0804 20.41 10.9274L20.1585 10.4907C20.1574 10.4888 20.1549 10.4882 20.153 10.4895C20.1512 10.4909 20.1487 10.4903 20.1475 10.4883L17.238 5.39774C17.2372 5.39632 17.2353 5.39596 17.234 5.39699C17.2327 5.39801 17.2308 5.39766 17.23 5.39623L16.8129 4.66975C16.4753 4.08161 15.5858 4.24516 15.4794 4.91495L15.2985 6.05443C15.2457 6.38725 15.0466 6.67891 14.7558 6.84934L3.44144 13.4822C3.0857 13.6899 2.86543 14.0758 2.86543 14.4891V34.2041C2.86543 34.6233 3.09057 35.0121 3.45411 35.2188C4.11604 35.5957 4.95788 35.3733 5.34725 34.7186L6.37995 32.9823C6.98291 31.9684 7.00086 30.7261 6.6 29.6167C5.98879 27.9252 5.65484 26.1015 5.65484 24.2002C5.65484 18.2215 8.94661 13.0029 13.8039 10.2744C14.302 9.99461 14.9229 10.1909 15.2061 10.687L16.1358 12.3153C16.1359 12.3155 16.1358 12.3157 16.1356 12.3157C16.1354 12.3157 16.1352 12.3159 16.1353 12.3161L17.0676 13.9462C17.3434 14.4286 17.9364 14.6196 18.4652 14.4492C19.4285 14.1388 20.4545 13.971 21.519 13.971C24.7059 13.9718 27.5492 15.4754 29.3841 17.8139ZM36.6353 33.0014C35.4488 33.0014 34.3623 33.6152 33.5954 34.5207C30.6841 37.9577 26.351 40.1424 21.518 40.1424C18.1806 40.1424 15.081 39.0979 12.5232 37.3219C12.3228 37.1828 12.2687 36.912 12.3938 36.7026L12.8208 35.9875C12.8211 35.9872 12.8208 35.9867 12.8204 35.9867C12.8199 35.9867 12.8197 35.9862 12.8199 35.9858L14.4551 33.2501C14.9177 32.4762 14.725 31.4905 14.1188 30.823C12.4922 29.0321 11.4988 26.6511 11.4988 24.0405C11.4988 21.3756 12.5349 18.9488 14.2232 17.1459C14.707 16.6293 14.8551 15.8589 14.5037 15.2445C14.0649 14.4771 13.045 14.2684 12.4156 14.8892C10.013 17.2591 8.52027 20.5568 8.52027 24.2002C8.52027 26.7714 9.26515 29.1694 10.5467 31.1928C10.619 31.307 10.6227 31.4522 10.5538 31.5684L10.3615 31.8927C10.3609 31.8937 10.3613 31.8951 10.3623 31.8956C10.3634 31.8961 10.3638 31.8974 10.3632 31.8984L6.3897 38.5773C6.3881 38.58 6.3846 38.5809 6.38191 38.5792C6.37922 38.5776 6.37573 38.5785 6.37412 38.5812L6.19754 38.876C6.02496 39.1641 6.31993 39.5055 6.63004 39.3766L8.54683 38.5797C8.84178 38.4571 9.17687 38.4778 9.45444 38.6359L20.9459 45.1797C21.2987 45.3804 21.7383 45.3804 22.0901 45.1797L39.5819 35.2188C39.9454 35.0121 40.1706 34.6233 40.1706 34.2041C40.1706 33.5399 39.6321 33.0014 38.9678 33.0014H36.6353Z" fill="#E6A284"/>
</g>
</g>
</g>
<mask id="mask8_3_1371" style="mask-type:luminance" maskUnits="userSpaceOnUse" x="19" y="20" width="5" height="5">
<path d="M19.8739 22.5122C19.8739 21.6036 20.6105 20.8589 21.5191 20.8589C22.4277 20.8589 23.1643 21.6036 23.1643 22.5122C23.1643 23.4208 22.4277 24.1655 21.5191 24.1655C20.6105 24.1655 19.8739 23.4208 19.8739 22.5122Z" fill="white"/>
</mask>
<g mask="url(#mask8_3_1371)">
<mask id="mask9_3_1371" style="mask-type:luminance" maskUnits="userSpaceOnUse" x="19" y="20" width="5" height="5">
<path d="M21.5191 20.8589C20.6107 20.8589 19.8739 21.5984 19.8739 22.5122C19.8739 23.425 20.6107 24.1655 21.5191 24.1655C22.4274 24.1655 23.1643 23.425 23.1643 22.5122C23.1643 21.5984 22.4274 20.8589 21.5191 20.8589Z" fill="white"/>
</mask>
<g mask="url(#mask9_3_1371)">
<mask id="mask10_3_1371" style="mask-type:luminance" maskUnits="userSpaceOnUse" x="19" y="20" width="5" height="5">
<path d="M21.6353 20.7395H21.403C20.4336 20.7395 19.6478 21.5253 19.6478 22.4946C19.6478 23.464 20.4336 24.2498 21.403 24.2498H21.6353C22.6046 24.2498 23.3904 23.464 23.3904 22.4946C23.3904 21.5253 22.6046 20.7395 21.6353 20.7395Z" fill="white"/>
</mask>
<g mask="url(#mask10_3_1371)">
<mask id="mask11_3_1371" style="mask-type:luminance" maskUnits="userSpaceOnUse" x="19" y="20" width="5" height="5">
<path d="M19.8739 22.5122C19.8739 21.6036 20.6105 20.8589 21.5191 20.8589C22.4277 20.8589 23.1643 21.6036 23.1643 22.5122C23.1643 23.4208 22.4277 24.1655 21.5191 24.1655C20.6105 24.1655 19.8739 23.4208 19.8739 22.5122Z" fill="white"/>
</mask>
<g mask="url(#mask11_3_1371)">
<mask id="mask12_3_1371" style="mask-type:luminance" maskUnits="userSpaceOnUse" x="19" y="20" width="5" height="5">
<path d="M21.5191 20.8589C20.6107 20.8589 19.8739 21.5984 19.8739 22.5122C19.8739 23.425 20.6107 24.1655 21.5191 24.1655C22.4274 24.1655 23.1643 23.425 23.1643 22.5122C23.1643 21.5984 22.4274 20.8589 21.5191 20.8589Z" fill="white"/>
</mask>
<g mask="url(#mask12_3_1371)">
<path d="M19.8739 22.5122C19.8739 21.6036 20.6105 20.8589 21.5191 20.8589C22.4277 20.8589 23.1643 21.6036 23.1643 22.5122C23.1643 23.4208 22.4277 24.1655 21.5191 24.1655C20.6105 24.1655 19.8739 23.4208 19.8739 22.5122Z" fill="#E6A284"/>
</g>
</g>
</g>
</g>
</g>
</svg>
